<svg width="25" height="20" viewBox="0 0 25 20" fill="none" xmlns="http://www.w3.org/2000/svg">
    <path d="M5 13C5 12.4477 5.44772 12 6 12H19.1295C19.6818 12 20.1295 12.4477 20.1295 13V13C20.1295 13.5523 19.6818 14 19.1295 14H6C5.44771 14 5 13.5523 5 13V13Z" fill="#040759"/>
    <path d="M5 7C5 6.44772 5.44772 6 6 6H19.1295C19.6818 6 20.1295 6.44772 20.1295 7V7C20.1295 7.55228 19.6818 8 19.1295 8H6C5.44771 8 5 7.55228 5 7V7Z" fill="#040759"/>
    <rect x="1" y="1" width="23" height="18" rx="1" stroke="#040759" stroke-width="2"/>
</svg>

