<svg width="91" height="69" viewBox="0 0 91 69" fill="none" xmlns="http://www.w3.org/2000/svg">
    <path d="M63.8519 30.396C65.5545 36.7503 58.7113 44.1051 48.567 46.8232C38.4227 49.5414 28.8189 46.5936 27.1162 40.2393C25.4136 33.8849 32.2569 26.5302 42.4012 23.812C52.5454 21.0939 62.1492 24.0416 63.8519 30.396Z" fill="#3D4485"/>
    <path d="M80.0226 14.7551C76.5072 1.63552 53.9738 -3.72578 29.6929 2.78028C18.5012 5.77907 8.89172 10.7757 2.12777 16.576C7.56989 13.4418 13.9336 10.795 20.9125 8.92496C37.7563 4.41169 53.7591 5.60927 63.1556 11.146C65.2765 12.3957 67.0609 13.8665 68.4424 15.5426C69.7633 17.1452 70.7159 18.9356 71.2422 20.8998C73.1373 27.9722 69.1188 35.8555 61.2079 42.6394C61.4535 42.498 61.6971 42.3556 61.9389 42.2122C74.259 34.9062 81.6341 25.093 80.3403 16.292C80.2644 15.776 80.1588 15.2634 80.0226 14.7551Z" fill="#3D4485"/>
    <path d="M13.0122 54.0016C16.5591 67.2387 39.118 72.6953 63.3989 66.1893C74.5906 63.1905 84.1946 58.1736 90.9497 52.34C85.5113 55.4882 79.1497 58.1429 72.1707 60.0129C55.0861 64.5907 38.8541 63.246 29.4976 57.4356C27.4612 56.171 25.7505 54.6949 24.4275 53.0222C24.0587 52.5558 23.72 52.0742 23.4128 51.5776C22.6894 50.4083 22.1406 49.1561 21.784 47.8253C19.872 40.6894 23.8753 32.7493 31.7757 25.9264C31.5517 26.056 31.3294 26.1865 31.1086 26.3178C18.8269 33.6209 11.4553 43.4502 12.67 52.305C12.7482 52.8749 12.8619 53.4408 13.0122 54.0016Z" fill="#3D4485"/>
    <path fill-rule="evenodd" clip-rule="evenodd" d="M80.3403 16.292C80.2644 15.776 80.1588 15.2634 80.0226 14.7551C76.5072 1.63552 53.9738 -3.72578 29.6929 2.78028C18.5012 5.77907 8.89172 10.7757 2.12777 16.576C7.56989 13.4418 13.9336 10.795 20.9125 8.92496C37.7563 4.41169 53.7591 5.60927 63.1556 11.146C65.2765 12.3957 67.0609 13.8665 68.4424 15.5426C69.7633 17.1452 70.7159 18.9356 71.2422 20.8998C73.1373 27.9722 69.1188 35.8555 61.2079 42.6394C61.4535 42.498 61.6971 42.3556 61.9389 42.2122C74.259 34.9062 81.6341 25.093 80.3403 16.292ZM63.8519 30.396C65.5545 36.7503 58.7113 44.1051 48.567 46.8232C38.4227 49.5414 28.8189 46.5936 27.1162 40.2393C25.4136 33.8849 32.2569 26.5302 42.4012 23.812C52.5454 21.0939 62.1492 24.0416 63.8519 30.396Z" fill="#3D4485"/>
</svg>
